<svg xmlns="http://www.w3.org/2000/svg" viewBox="0 0 512 512" width="100%" height="100%">
  <rect width="512" height="512" rx="112" fill="#0b0f19"/>
  
  <rect x="24" y="24" width="464" height="464" rx="88" fill="none" stroke="#1f2937" stroke-width="4"/>
  
  <g transform="translate(0, -10)">
    <line x1="120" y1="230" x2="392" y2="230" stroke="#1e293b" stroke-width="6" stroke-linecap="round"/>
    <line x1="120" y1="290" x2="392" y2="290" stroke="#1e293b" stroke-width="6" stroke-linecap="round"/>
    <line x1="120" y1="350" x2="392" y2="350" stroke="#1e293b" stroke-width="6" stroke-linecap="round"/>

    <rect x="140" y="218" width="44" height="24" rx="6" fill="#ef4444" filter="drop-shadow(0px 0px 8px #ef4444)"/>
    <rect x="300" y="218" width="44" height="24" rx="6" fill="#ef4444" filter="drop-shadow(0px 0px 8px #ef4444)"/>
    
    <rect x="220" y="278" width="44" height="24" rx="6" fill="#a855f7" filter="drop-shadow(0px 0px 8px #a855f7)"/>
    <rect x="380" y="278" width="44" height="24" rx="6" fill="#a855f7" filter="drop-shadow(0px 0px 8px #a855f7)"/>
    
    <rect x="140" y="338" width="44" height="24" rx="6" fill="#10b981" filter="drop-shadow(0px 0px 8px #10b981)"/>
    <rect x="300" y="338" width="44" height="24" rx="6" fill="#10b981" filter="drop-shadow(0px 0px 8px #10b981)"/>
  </g>

  <circle cx="256" cy="115" r="45" fill="#111827" stroke="#374151" stroke-width="4"/>
  <line x1="256" y1="115" x2="256" y2="76" stroke="#38bdf8" stroke-width="5" stroke-linecap="round" filter="drop-shadow(0px 0px 6px #38bdf8)"/>
</svg>
